<?xml version="1.0" encoding="UTF-8" standalone="no"?>
<!-- Created with Inkscape (http://www.inkscape.org/) -->

<svg
   version="1.1"
   id="svg1"
   width="196.53543"
   height="196.53543"
   viewBox="0 0 196.53543 196.53543"
   sodipodi:docname="sims_room_layout_svg-tex.svg"
   inkscape:version="1.4 (86a8ad7, 2024-10-11)"
   xmlns:inkscape="http://www.inkscape.org/namespaces/inkscape"
   xmlns:sodipodi="http://sodipodi.sourceforge.net/DTD/sodipodi-0.dtd"
   xmlns="http://www.w3.org/2000/svg"
   xmlns:svg="http://www.w3.org/2000/svg">
  <defs
     id="defs1" />
  <sodipodi:namedview
     id="namedview1"
     pagecolor="#505050"
     bordercolor="#eeeeee"
     borderopacity="1"
     inkscape:showpageshadow="0"
     inkscape:pageopacity="0"
     inkscape:pagecheckerboard="0"
     inkscape:deskcolor="#505050"
     inkscape:zoom="1.9665665"
     inkscape:cx="13.983763"
     inkscape:cy="90.258833"
     inkscape:window-width="1920"
     inkscape:window-height="991"
     inkscape:window-x="-9"
     inkscape:window-y="-9"
     inkscape:window-maximized="1"
     inkscape:current-layer="g1">
    <inkscape:page
       x="0"
       y="0"
       inkscape:label="1"
       id="page1"
       width="196.53543"
       height="196.53543"
       margin="0"
       bleed="0" />
  </sodipodi:namedview>
  <g
     id="g1"
     inkscape:groupmode="layer"
     inkscape:label="1">
    <path
       id="path1"
       d="M 2.836,2.836 H 31.18 V 31.18 H 2.836 Z"
       style="fill:#ffffff;fill-opacity:1;fill-rule:nonzero;stroke:none"
       transform="scale(1.3333333)" />
    <path
       id="path2"
       d="M 31.18,2.836 H 59.528 V 31.18 H 31.18 Z"
       style="fill:#cccccc;fill-opacity:1;fill-rule:nonzero;stroke:none"
       transform="scale(1.3333333)" />
    <path
       id="path3"
       d="m 87.777,2.836 h 28.348 V 31.18 H 87.777 Z"
       style="fill:#cccccc;fill-opacity:1;fill-rule:nonzero;stroke:none"
       transform="scale(1.3333333)" />
    <path
       id="path4"
       d="m 116.125,2.836 h 28.344 V 31.18 h -28.344 z"
       style="fill:#ffffff;fill-opacity:1;fill-rule:nonzero;stroke:none"
       transform="scale(1.3333333)" />
    <path
       id="path5"
       d="M 59.43,2.836 H 87.778 V 31.18 H 59.43 Z"
       style="fill:#ffffff;fill-opacity:1;fill-rule:nonzero;stroke:none"
       transform="scale(1.3333333)" />
    <path
       id="path6"
       d="M 2.836,31.18 H 31.18 V 59.528 H 2.836 Z"
       style="fill:#cccccc;fill-opacity:1;fill-rule:nonzero;stroke:none"
       transform="scale(1.3333333)" />
    <path
       id="path7"
       d="M 31.18,31.18 H 59.528 V 59.528 H 31.18 Z"
       style="fill:#ffffff;fill-opacity:1;fill-rule:nonzero;stroke:none"
       transform="scale(1.3333333)" />
    <path
       id="path8"
       d="m 87.777,31.18 h 28.348 V 59.528 H 87.777 Z"
       style="fill:#ffffff;fill-opacity:1;fill-rule:nonzero;stroke:none"
       transform="scale(1.3333333)" />
    <path
       id="path9"
       d="m 116.125,31.18 h 28.344 v 28.348 h -28.344 z"
       style="fill:#cccccc;fill-opacity:1;fill-rule:nonzero;stroke:none"
       transform="scale(1.3333333)" />
    <path
       id="path10"
       d="M 59.43,31.18 H 87.778 V 59.528 H 59.43 Z"
       style="fill:#cccccc;fill-opacity:1;fill-rule:nonzero;stroke:none"
       transform="scale(1.3333333)" />
    <path
       id="path11"
       d="M 2.836,59.527 H 31.18 V 87.875 H 2.836 Z"
       style="fill:#ffffff;fill-opacity:1;fill-rule:nonzero;stroke:none"
       transform="scale(1.3333333)" />
    <path
       id="path12"
       d="M 31.18,59.527 H 59.528 V 87.875 H 31.18 Z"
       style="fill:#cccccc;fill-opacity:1;fill-rule:nonzero;stroke:none"
       transform="scale(1.3333333)" />
    <path
       id="path13"
       d="m 87.777,59.527 h 28.348 V 87.875 H 87.777 Z"
       style="fill:#cccccc;fill-opacity:1;fill-rule:nonzero;stroke:none"
       transform="scale(1.3333333)" />
    <path
       id="path14"
       d="m 116.125,59.527 h 28.344 v 28.348 h -28.344 z"
       style="fill:#ffffff;fill-opacity:1;fill-rule:nonzero;stroke:none"
       transform="scale(1.3333333)" />
    <path
       id="path15"
       d="M 59.43,59.527 H 87.778 V 87.875 H 59.43 Z"
       style="fill:#ffffff;fill-opacity:1;fill-rule:nonzero;stroke:none"
       transform="scale(1.3333333)" />
    <path
       id="path16"
       d="M 2.836,87.875 H 31.18 v 28.344 H 2.836 Z"
       style="fill:#cccccc;fill-opacity:1;fill-rule:nonzero;stroke:none"
       transform="scale(1.3333333)" />
    <path
       id="path17"
       d="m 31.18,87.875 h 28.348 v 28.344 H 31.18 Z"
       style="fill:#ffffff;fill-opacity:1;fill-rule:nonzero;stroke:none"
       transform="scale(1.3333333)" />
    <path
       id="path18"
       d="m 87.777,87.875 h 28.348 v 28.344 H 87.777 Z"
       style="fill:#ffffff;fill-opacity:1;fill-rule:nonzero;stroke:none"
       transform="scale(1.3333333)" />
    <path
       id="path19"
       d="m 116.125,87.875 h 28.344 v 28.344 h -28.344 z"
       style="fill:#cccccc;fill-opacity:1;fill-rule:nonzero;stroke:none"
       transform="scale(1.3333333)" />
    <path
       id="path20"
       d="m 59.43,87.875 h 28.348 v 28.344 H 59.43 Z"
       style="fill:#cccccc;fill-opacity:1;fill-rule:nonzero;stroke:none"
       transform="scale(1.3333333)" />
    <path
       id="path21"
       d="M 2.836,116.219 H 31.18 v 28.348 H 2.836 Z"
       style="fill:#ffffff;fill-opacity:1;fill-rule:nonzero;stroke:none"
       transform="scale(1.3333333)" />
    <path
       id="path22"
       d="m 31.18,116.219 h 28.348 v 28.348 H 31.18 Z"
       style="fill:#cccccc;fill-opacity:1;fill-rule:nonzero;stroke:none"
       transform="scale(1.3333333)" />
    <path
       id="path23"
       d="m 87.777,116.219 h 28.348 v 28.348 H 87.777 Z"
       style="fill:#cccccc;fill-opacity:1;fill-rule:nonzero;stroke:none"
       transform="scale(1.3333333)" />
    <path
       id="path24"
       d="m 116.125,116.219 h 28.344 v 28.348 h -28.344 z"
       style="fill:#ffffff;fill-opacity:1;fill-rule:nonzero;stroke:none"
       transform="scale(1.3333333)" />
    <path
       id="path25"
       d="m 59.43,116.219 h 28.348 v 28.348 H 59.43 Z"
       style="fill:#ffffff;fill-opacity:1;fill-rule:nonzero;stroke:none"
       transform="scale(1.3333333)" />
    <path
       id="path26"
       d="m 78.703,127.496 c 0,6.262 -5.078,11.34 -11.34,11.34 -6.261,0 -11.336,-5.078 -11.336,-11.34 0,-6.262 5.075,-11.34 11.336,-11.34 6.262,0 11.34,5.078 11.34,11.34 z"
       style="fill:none;stroke:#b52f2f;stroke-width:1.41732;stroke-linecap:square;stroke-linejoin:miter;stroke-miterlimit:4;stroke-dasharray:none;stroke-opacity:1"
       transform="scale(1.3333333)" />
    <path
       id="path27"
       d="m 84.371,127.496 c 0,9.395 -7.613,17.008 -17.008,17.008 -9.39,0 -17.008,-7.613 -17.008,-17.008 0,-9.394 7.618,-17.008 17.008,-17.008 9.395,0 17.008,7.614 17.008,17.008 z"
       style="fill:none;stroke:#b52f2f;stroke-width:1.41732;stroke-linecap:square;stroke-linejoin:miter;stroke-miterlimit:4;stroke-dasharray:none;stroke-opacity:0.7"
       transform="scale(1.3333333)" />
    <path
       id="path28"
       d="m 53.391,145.355 c -7.68,-6.007 -10.661,-16.253 -7.399,-25.445 3.262,-9.191 12.035,-15.265 21.785,-15.086 9.75,0.176 18.297,6.567 21.219,15.871 2.926,9.301 -0.426,19.434 -8.316,25.16"
       style="fill:none;stroke:#b52f2f;stroke-width:1.41732;stroke-linecap:square;stroke-linejoin:miter;stroke-miterlimit:4;stroke-dasharray:none;stroke-opacity:0.4"
       transform="scale(1.3333333)" />
    <path
       id="path29"
       d="m 45.793,145.887 c -9.777,-11.469 -8.871,-28.582 2.059,-38.953 10.933,-10.375 28.07,-10.379 39.011,-0.012 10.938,10.363 11.852,27.476 2.082,38.953"
       style="fill:none;stroke:#b52f2f;stroke-width:1.41732;stroke-linecap:square;stroke-linejoin:miter;stroke-miterlimit:4;stroke-dasharray:none;stroke-opacity:0.1"
       transform="scale(1.3333333)" />
    <path
       id="path30"
       d="m 113.641,-45.371 c 0,6.262 -5.075,11.336 -11.336,11.336 -6.266,0 -11.34,-5.074 -11.34,-11.336 0,-6.266 5.074,-11.34 11.34,-11.34 6.261,0 11.336,5.074 11.336,11.34 z"
       style="fill:none;stroke:#b52f2f;stroke-width:1.41732;stroke-linecap:square;stroke-linejoin:miter;stroke-miterlimit:4;stroke-dasharray:none;stroke-opacity:1"
       transform="scale(1.3333333,-1.3333333)" />
    <path
       id="path31"
       d="m 119.312,-45.371 c 0,9.391 -7.617,17.008 -17.007,17.008 -9.395,0 -17.012,-7.617 -17.012,-17.008 0,-9.395 7.617,-17.008 17.012,-17.008 9.39,0 17.007,7.613 17.007,17.008 z"
       style="fill:none;stroke:#b52f2f;stroke-width:1.41732;stroke-linecap:square;stroke-linejoin:miter;stroke-miterlimit:4;stroke-dasharray:none;stroke-opacity:0.7"
       transform="scale(1.3333333,-1.3333333)" />
    <path
       id="path32"
       d="m 124.98,-45.371 c 0,12.523 -10.152,22.676 -22.675,22.676 -12.528,0 -22.68,-10.153 -22.68,-22.676 0,-12.527 10.152,-22.68 22.68,-22.68 12.523,0 22.675,10.153 22.675,22.68 z"
       style="fill:none;stroke:#b52f2f;stroke-width:1.41732;stroke-linecap:square;stroke-linejoin:miter;stroke-miterlimit:4;stroke-dasharray:none;stroke-opacity:0.4"
       transform="scale(1.3333333,-1.3333333)" />
    <path
       id="path33"
       d="m 130.648,-45.371 c 0,15.652 -12.691,28.344 -28.343,28.344 -15.657,0 -28.348,-12.692 -28.348,-28.344 0,-15.656 12.691,-28.348 28.348,-28.348 15.652,0 28.343,12.692 28.343,28.348 z"
       style="fill:none;stroke:#b52f2f;stroke-width:1.41732;stroke-linecap:square;stroke-linejoin:miter;stroke-miterlimit:4;stroke-dasharray:none;stroke-opacity:0.1"
       transform="scale(1.3333333,-1.3333333)" />
    <path
       id="path34"
       d="m 73.699,45.355 c 0,15.653 -12.691,28.344 -28.344,28.344 -15.656,0 -28.347,-12.691 -28.347,-28.344 0,-15.656 12.691,-28.347 28.347,-28.347 15.653,0 28.344,12.691 28.344,28.347 z"
       style="fill:none;stroke:#b52f2f;stroke-width:1.41732;stroke-linecap:butt;stroke-linejoin:miter;stroke-miterlimit:4;stroke-dasharray:none;stroke-opacity:1"
       transform="scale(1.3333333)" />
    <path
       id="path35"
       d="m 68.031,45.355 c 0,12.524 -10.152,22.676 -22.676,22.676 -12.527,0 -22.679,-10.152 -22.679,-22.676 0,-12.523 10.152,-22.679 22.679,-22.679 12.524,0 22.676,10.156 22.676,22.679 z"
       style="fill:none;stroke:#b52f2f;stroke-width:1.41732;stroke-linecap:butt;stroke-linejoin:miter;stroke-miterlimit:4;stroke-dasharray:none;stroke-opacity:0.55"
       transform="scale(1.3333333)" />
    <path
       id="path36"
       d="m 62.363,45.355 c 0,9.391 -7.617,17.008 -17.008,17.008 -9.394,0 -17.007,-7.617 -17.007,-17.008 0,-9.394 7.613,-17.007 17.007,-17.007 9.391,0 17.008,7.613 17.008,17.007 z"
       style="fill:none;stroke:#b52f2f;stroke-width:1.41732;stroke-linecap:butt;stroke-linejoin:miter;stroke-miterlimit:4;stroke-dasharray:none;stroke-opacity:0.1"
       transform="scale(1.3333333)" />
    <path
       id="path37"
       d="m 79.371,45.355 c 0,18.786 -15.23,34.016 -34.016,34.016 -18.789,0 -34.015,-15.23 -34.015,-34.016 0,-18.789 15.226,-34.015 34.015,-34.015 18.786,0 34.016,15.226 34.016,34.015 z"
       style="fill:none;stroke:#b52f2f;stroke-width:1.41732;stroke-linecap:butt;stroke-linejoin:miter;stroke-miterlimit:4;stroke-dasharray:none;stroke-opacity:0.55"
       transform="scale(1.3333333)" />
    <path
       id="path38"
       d="m 85.039,45.355 c 0,21.918 -17.766,39.684 -39.684,39.684 -21.917,0 -39.687,-17.766 -39.687,-39.684 0,-21.917 17.77,-39.687 39.687,-39.687 21.918,0 39.684,17.77 39.684,39.687 z"
       style="fill:none;stroke:#b52f2f;stroke-width:1.41732;stroke-linecap:butt;stroke-linejoin:miter;stroke-miterlimit:4;stroke-dasharray:none;stroke-opacity:0.1"
       transform="scale(1.3333333)" />
    <path
       id="path39"
       d="M 3.6519995,3.781332 H 192.62533 V 192.75466 H 3.6519995 Z"
       style="fill:#ffffff;fill-opacity:0.77272701;fill-rule:nonzero;stroke:none;stroke-width:1.33333" />
    <path
       id="path40"
       d="m 70.766,127.496 c 0,1.879 -1.524,3.402 -3.403,3.402 -1.879,0 -3.402,-1.523 -3.402,-3.402 0,-1.879 1.523,-3.402 3.402,-3.402 1.879,0 3.403,1.523 3.403,3.402 z"
       style="fill:#cccb44;fill-opacity:1;fill-rule:nonzero;stroke:#000000;stroke-width:2.83465;stroke-linecap:square;stroke-linejoin:miter;stroke-miterlimit:4;stroke-dasharray:none;stroke-opacity:1;paint-order:stroke fill markers"
       transform="scale(1.3333333)" />
    <path
       id="path41"
       d="m 61.695,117.676 c 1.723,-0.996 3.68,-1.52 5.668,-1.52"
       style="fill:none;stroke:#cccb44;stroke-width:1.41732;stroke-linecap:square;stroke-linejoin:miter;stroke-miterlimit:4;stroke-dasharray:none;stroke-opacity:1"
       transform="scale(1.3333333)" />
    <path
       id="path42"
       d="m 58.859,112.766 c 2.586,-1.493 5.52,-2.278 8.504,-2.278"
       style="fill:none;stroke:#cccb44;stroke-width:1.41732;stroke-linecap:square;stroke-linejoin:miter;stroke-miterlimit:4;stroke-dasharray:none;stroke-opacity:1"
       transform="scale(1.3333333)" />
    <path
       id="path43"
       d="m 56.027,107.855 c 3.446,-1.988 7.356,-3.035 11.336,-3.035"
       style="fill:none;stroke:#cccb44;stroke-width:1.41732;stroke-linecap:square;stroke-linejoin:miter;stroke-miterlimit:4;stroke-dasharray:none;stroke-opacity:1"
       transform="scale(1.3333333)" />
    <path
       id="path44"
       d="m 106.301,45.355 c 0,2.348 -1.906,4.25 -4.254,4.25 -2.348,0 -4.25,-1.902 -4.25,-4.25 0,-2.347 1.902,-4.253 4.25,-4.253 2.348,0 4.254,1.906 4.254,4.253 z"
       style="fill:#58bb5d;fill-opacity:1;fill-rule:nonzero;stroke:#000000;stroke-width:2.71241;stroke-linecap:square;stroke-linejoin:miter;stroke-miterlimit:4;stroke-dasharray:none;stroke-opacity:1;paint-order:stroke fill markers"
       transform="scale(1.3333333)" />
    <path
       id="path45"
       d="m 91.352,-42.438 c -0.516,-1.921 -0.516,-3.949 0,-5.871"
       style="fill:none;stroke:#58bb5d;stroke-width:1.41732;stroke-linecap:square;stroke-linejoin:miter;stroke-miterlimit:4;stroke-dasharray:none;stroke-opacity:1"
       transform="scale(1.3333333,-1.3333333)" />
    <path
       id="path46"
       d="m 85.875,-40.969 c -0.773,-2.886 -0.773,-5.922 0,-8.804"
       style="fill:none;stroke:#58bb5d;stroke-width:1.41732;stroke-linecap:square;stroke-linejoin:miter;stroke-miterlimit:4;stroke-dasharray:none;stroke-opacity:1"
       transform="scale(1.3333333,-1.3333333)" />
    <path
       id="path47"
       d="m 80.398,-39.504 c -1.031,-3.844 -1.031,-7.894 0,-11.738"
       style="fill:none;stroke:#58bb5d;stroke-width:1.41732;stroke-linecap:square;stroke-linejoin:miter;stroke-miterlimit:4;stroke-dasharray:none;stroke-opacity:1"
       transform="scale(1.3333333,-1.3333333)" />
    <path
       id="path48"
       d="m 55.697,-54.992 h 7.114 c 0.429,0 0.776,0.347 0.776,0.781 v 17.715 c 0,0.43 -0.347,0.777 -0.776,0.777 h -7.114 c -0.433,0 -0.78,-0.347 -0.78,-0.777 v -17.715 c 0,-0.434 0.347,-0.781 0.78,-0.781 z"
       style="fill:#ececec;fill-opacity:1;fill-rule:nonzero;stroke:#000000;stroke-width:0.647998;stroke-linecap:square;stroke-linejoin:miter;stroke-miterlimit:4;stroke-dasharray:none;stroke-opacity:1"
       transform="matrix(0,1.0205813,-1.3333333,0,0,0)" />
    <path
       id="path49"
       d="m 57.853,-43.934 c 0,0.313 -0.328,0.567 -0.732,0.567 -0.404,0 -0.732,-0.254 -0.732,-0.567 0,-0.312 0.328,-0.566 0.732,-0.566 0.404,0 0.732,0.254 0.732,0.566 z"
       style="fill:#999999;fill-opacity:1;fill-rule:nonzero;stroke:#8c8c8c;stroke-width:0.644495;stroke-linecap:square;stroke-linejoin:miter;stroke-miterlimit:4;stroke-dasharray:none;stroke-opacity:1"
       transform="matrix(0,1.0317133,-1.3333333,0,0,0)" />
    <path
       id="path50"
       d="m 60.715,-43.934 c 0,0.313 -0.323,0.567 -0.732,0.567 -0.404,0 -0.732,-0.254 -0.732,-0.567 0,-0.312 0.328,-0.566 0.732,-0.566 0.409,0 0.732,0.254 0.732,0.566 z"
       style="fill:#999999;fill-opacity:1;fill-rule:nonzero;stroke:#8c8c8c;stroke-width:0.644495;stroke-linecap:square;stroke-linejoin:miter;stroke-miterlimit:4;stroke-dasharray:none;stroke-opacity:1"
       transform="matrix(0,1.0317133,-1.3333333,0,0,0)" />
    <path
       id="path51"
       d="m 57.853,-52.527 c 0,0.312 -0.328,0.566 -0.732,0.566 -0.404,0 -0.732,-0.254 -0.732,-0.566 0,-0.313 0.328,-0.567 0.732,-0.567 0.404,0 0.732,0.254 0.732,0.567 z"
       style="fill:#999999;fill-opacity:1;fill-rule:nonzero;stroke:#8c8c8c;stroke-width:0.644495;stroke-linecap:square;stroke-linejoin:miter;stroke-miterlimit:4;stroke-dasharray:none;stroke-opacity:1"
       transform="matrix(0,1.0317133,-1.3333333,0,0,0)" />
    <path
       id="path52"
       d="m 60.715,-52.527 c 0,0.312 -0.323,0.566 -0.732,0.566 -0.404,0 -0.732,-0.254 -0.732,-0.566 0,-0.313 0.328,-0.567 0.732,-0.567 0.409,0 0.732,0.254 0.732,0.567 z"
       style="fill:#999999;fill-opacity:1;fill-rule:nonzero;stroke:#8c8c8c;stroke-width:0.644495;stroke-linecap:square;stroke-linejoin:miter;stroke-miterlimit:4;stroke-dasharray:none;stroke-opacity:1"
       transform="matrix(0,1.0317133,-1.3333333,0,0,0)" />
    <path
       id="path53"
       d="m 57.853,-41.07 c 0,0.312 -0.328,0.566 -0.732,0.566 -0.404,0 -0.732,-0.254 -0.732,-0.566 0,-0.313 0.328,-0.567 0.732,-0.567 0.404,0 0.732,0.254 0.732,0.567 z"
       style="fill:#999999;fill-opacity:1;fill-rule:nonzero;stroke:#8c8c8c;stroke-width:0.644495;stroke-linecap:square;stroke-linejoin:miter;stroke-miterlimit:4;stroke-dasharray:none;stroke-opacity:1"
       transform="matrix(0,1.0317133,-1.3333333,0,0,0)" />
    <path
       id="path54"
       d="m 60.715,-41.07 c 0,0.312 -0.323,0.566 -0.732,0.566 -0.404,0 -0.732,-0.254 -0.732,-0.566 0,-0.313 0.328,-0.567 0.732,-0.567 0.409,0 0.732,0.254 0.732,0.567 z"
       style="fill:#999999;fill-opacity:1;fill-rule:nonzero;stroke:#8c8c8c;stroke-width:0.644495;stroke-linecap:square;stroke-linejoin:miter;stroke-miterlimit:4;stroke-dasharray:none;stroke-opacity:1"
       transform="matrix(0,1.0317133,-1.3333333,0,0,0)" />
    <path
       id="path55"
       d="m 57.853,-49.664 c 0,0.316 -0.328,0.57 -0.732,0.57 -0.404,0 -0.732,-0.254 -0.732,-0.57 0,-0.313 0.328,-0.566 0.732,-0.566 0.404,0 0.732,0.253 0.732,0.566 z"
       style="fill:#999999;fill-opacity:1;fill-rule:nonzero;stroke:#8c8c8c;stroke-width:0.644494;stroke-linecap:square;stroke-linejoin:miter;stroke-miterlimit:4;stroke-dasharray:none;stroke-opacity:1"
       transform="matrix(0,1.0317133,-1.3333333,0,0,0)" />
    <path
       id="path56"
       d="m 60.715,-49.664 c 0,0.316 -0.323,0.57 -0.732,0.57 -0.404,0 -0.732,-0.254 -0.732,-0.57 0,-0.313 0.328,-0.566 0.732,-0.566 0.409,0 0.732,0.253 0.732,0.566 z"
       style="fill:#999999;fill-opacity:1;fill-rule:nonzero;stroke:#8c8c8c;stroke-width:0.644495;stroke-linecap:square;stroke-linejoin:miter;stroke-miterlimit:4;stroke-dasharray:none;stroke-opacity:1"
       transform="matrix(0,1.0317133,-1.3333333,0,0,0)" />
    <path
       id="path57"
       d="m 57.853,-38.207 c 0,0.312 -0.328,0.566 -0.732,0.566 -0.404,0 -0.732,-0.254 -0.732,-0.566 0,-0.313 0.328,-0.566 0.732,-0.566 0.404,0 0.732,0.253 0.732,0.566 z"
       style="fill:#999999;fill-opacity:1;fill-rule:nonzero;stroke:#8c8c8c;stroke-width:0.644495;stroke-linecap:square;stroke-linejoin:miter;stroke-miterlimit:4;stroke-dasharray:none;stroke-opacity:1"
       transform="matrix(0,1.0317133,-1.3333333,0,0,0)" />
    <path
       id="path58"
       d="m 60.715,-38.207 c 0,0.312 -0.323,0.566 -0.732,0.566 -0.404,0 -0.732,-0.254 -0.732,-0.566 0,-0.313 0.328,-0.566 0.732,-0.566 0.409,0 0.732,0.253 0.732,0.566 z"
       style="fill:#999999;fill-opacity:1;fill-rule:nonzero;stroke:#8c8c8c;stroke-width:0.644495;stroke-linecap:square;stroke-linejoin:miter;stroke-miterlimit:4;stroke-dasharray:none;stroke-opacity:1"
       transform="matrix(0,1.0317133,-1.3333333,0,0,0)" />
    <path
       id="path59"
       d="m 57.853,-46.797 c 0,0.313 -0.328,0.567 -0.732,0.567 -0.404,0 -0.732,-0.254 -0.732,-0.567 0,-0.316 0.328,-0.57 0.732,-0.57 0.404,0 0.732,0.254 0.732,0.57 z"
       style="fill:#999999;fill-opacity:1;fill-rule:nonzero;stroke:#8c8c8c;stroke-width:0.644495;stroke-linecap:square;stroke-linejoin:miter;stroke-miterlimit:4;stroke-dasharray:none;stroke-opacity:1"
       transform="matrix(0,1.0317133,-1.3333333,0,0,0)" />
    <path
       id="path60"
       d="m 60.715,-46.797 c 0,0.313 -0.323,0.567 -0.732,0.567 -0.404,0 -0.732,-0.254 -0.732,-0.567 0,-0.316 0.328,-0.57 0.732,-0.57 0.409,0 0.732,0.254 0.732,0.57 z"
       style="fill:#999999;fill-opacity:1;fill-rule:nonzero;stroke:#8c8c8c;stroke-width:0.644495;stroke-linecap:square;stroke-linejoin:miter;stroke-miterlimit:4;stroke-dasharray:none;stroke-opacity:1"
       transform="matrix(0,1.0317133,-1.3333333,0,0,0)" />
    <path
       id="path61"
       d="M 1.418,1.418 H 145.984 V 145.984 H 1.418 Z"
       style="fill:none;stroke:#000000;stroke-width:2.83465;stroke-linecap:square;stroke-linejoin:miter;stroke-miterlimit:4;stroke-dasharray:none;stroke-opacity:1"
       transform="scale(1.3333333)" />
    <path
       id="path62"
       d="m 46.203,17.008 c 0,0.469 -0.379,0.851 -0.848,0.851 -0.472,0 -0.851,-0.382 -0.851,-0.851 0,-0.469 0.379,-0.852 0.851,-0.852 0.469,0 0.848,0.383 0.848,0.852 z"
       style="fill:#2f58b5;fill-opacity:1;fill-rule:nonzero;stroke:#000000;stroke-width:1.41732;stroke-linecap:butt;stroke-linejoin:miter;stroke-miterlimit:4;stroke-dasharray:none;stroke-opacity:1;paint-order:stroke fill markers"
       transform="scale(1.3333333)" />
    <path
       id="path63"
       d="m 46.203,73.699 c 0,0.473 -0.379,0.852 -0.848,0.852 -0.472,0 -0.851,-0.379 -0.851,-0.852 0,-0.469 0.379,-0.847 0.851,-0.847 0.469,0 0.848,0.378 0.848,0.847 z"
       style="fill:#2f58b5;fill-opacity:1;fill-rule:nonzero;stroke:#000000;stroke-width:1.41732;stroke-linecap:butt;stroke-linejoin:miter;stroke-miterlimit:4;stroke-dasharray:none;stroke-opacity:1;paint-order:stroke fill markers"
       transform="scale(1.3333333)" />
    <path
       id="path64"
       d="m 46.203,-73.699 c 0,0.469 -0.379,0.847 -0.848,0.847 -0.472,0 -0.851,-0.378 -0.851,-0.847 0,-0.473 0.379,-0.852 0.851,-0.852 0.469,0 0.848,0.379 0.848,0.852 z"
       style="fill:none;stroke:#000000;stroke-width:1.41732;stroke-linecap:butt;stroke-linejoin:miter;stroke-miterlimit:4;stroke-dasharray:none;stroke-opacity:1"
       transform="matrix(0,1.3333333,-1.3333333,0,0,0)" />
    <path
       id="path65"
       d="m 73.699,46.203 c -0.469,0 -0.847,-0.379 -0.847,-0.848 0,-0.472 0.378,-0.851 0.847,-0.851 0.473,0 0.852,0.379 0.852,0.851 0,0.469 -0.379,0.848 -0.852,0.848 z"
       style="fill:#2f58b5;fill-opacity:1;fill-rule:nonzero;stroke:none"
       transform="scale(1.3333333)" />
    <path
       id="path66"
       d="m 46.203,-17.008 c 0,0.469 -0.379,0.852 -0.848,0.852 -0.472,0 -0.851,-0.383 -0.851,-0.852 0,-0.469 0.379,-0.851 0.851,-0.851 0.469,0 0.848,0.382 0.848,0.851 z"
       style="fill:none;stroke:#000000;stroke-width:1.41732;stroke-linecap:butt;stroke-linejoin:miter;stroke-miterlimit:4;stroke-dasharray:none;stroke-opacity:1"
       transform="matrix(0,1.3333333,-1.3333333,0,0,0)" />
    <path
       id="path67"
       d="m 17.008,46.203 c -0.469,0 -0.852,-0.379 -0.852,-0.848 0,-0.472 0.383,-0.851 0.852,-0.851 0.469,0 0.851,0.379 0.851,0.851 0,0.469 -0.382,0.848 -0.851,0.848 z"
       style="fill:#2f58b5;fill-opacity:1;fill-rule:nonzero;stroke:none"
       transform="scale(1.3333333)" />
    <path
       id="path68"
       d="m 45.955,-20.037 c 0,0.332 -0.269,0.601 -0.601,0.601 -0.333,0 -0.602,-0.269 -0.602,-0.601 0,-0.332 0.269,-0.602 0.602,-0.602 0.332,0 0.601,0.27 0.601,0.602 z"
       style="fill:none;stroke:#000000;stroke-width:1.0022;stroke-linecap:butt;stroke-linejoin:miter;stroke-miterlimit:4;stroke-dasharray:none;stroke-opacity:1"
       transform="matrix(1.3333333,1.3333333,-1.3333333,1.3333333,0,0)" />
    <path
       id="path69"
       d="m 65.992,25.918 c -0.332,0.332 -0.871,0.332 -1.203,0 -0.332,-0.332 -0.332,-0.871 0,-1.203 0.332,-0.332 0.871,-0.332 1.203,0 0.332,0.332 0.332,0.871 0,1.203 z"
       style="fill:#2f58b5;fill-opacity:1;fill-rule:nonzero;stroke:none"
       transform="scale(1.3333333)" />
    <path
       id="path70"
       d="m 45.957,20.051 c 0,0.332 -0.269,0.601 -0.602,0.601 -0.332,0 -0.601,-0.269 -0.601,-0.601 0,-0.332 0.269,-0.602 0.601,-0.602 0.333,0 0.602,0.27 0.602,0.602 z"
       style="fill:none;stroke:#000000;stroke-width:1.0022;stroke-linecap:butt;stroke-linejoin:miter;stroke-miterlimit:4;stroke-dasharray:none;stroke-opacity:1"
       transform="matrix(1.3333333,1.3333333,-1.3333333,1.3333333,0,0)" />
    <path
       id="path71"
       d="m 25.906,66.008 c -0.332,0.332 -0.871,0.332 -1.203,0 -0.332,-0.332 -0.332,-0.871 0,-1.203 0.332,-0.332 0.871,-0.332 1.203,0 0.332,0.332 0.332,0.871 0,1.203 z"
       style="fill:#2f58b5;fill-opacity:1;fill-rule:nonzero;stroke:none"
       transform="scale(1.3333333)" />
    <path
       id="path72"
       d="m 0.609,-65.398 c 0,0.332 -0.269,0.601 -0.601,0.601 -0.332,0 -0.602,-0.269 -0.602,-0.601 0,-0.332 0.27,-0.602 0.602,-0.602 0.332,0 0.601,0.27 0.601,0.602 z"
       style="fill:none;stroke:#000000;stroke-width:1.0022;stroke-linecap:butt;stroke-linejoin:miter;stroke-miterlimit:4;stroke-dasharray:none;stroke-opacity:1"
       transform="matrix(-1.3333333,1.3333333,-1.3333333,-1.3333333,0,0)" />
    <path
       id="path73"
       d="m 64.789,66.008 c -0.332,-0.332 -0.332,-0.871 0,-1.203 0.332,-0.332 0.871,-0.332 1.203,0 0.332,0.332 0.332,0.871 0,1.203 -0.332,0.332 -0.871,0.332 -1.203,0 z"
       style="fill:#2f58b5;fill-opacity:1;fill-rule:nonzero;stroke:none"
       transform="scale(1.3333333)" />
    <path
       id="path74"
       d="m 0.607,-25.311 c 0,0.332 -0.269,0.602 -0.601,0.602 -0.332,0 -0.602,-0.27 -0.602,-0.602 0,-0.332 0.27,-0.601 0.602,-0.601 0.332,0 0.601,0.269 0.601,0.601 z"
       style="fill:none;stroke:#000000;stroke-width:1.0022;stroke-linecap:butt;stroke-linejoin:miter;stroke-miterlimit:4;stroke-dasharray:none;stroke-opacity:1"
       transform="matrix(-1.3333333,1.3333333,-1.3333333,-1.3333333,0,0)" />
    <path
       id="path75"
       d="m 24.703,25.918 c -0.332,-0.332 -0.332,-0.871 0,-1.203 0.332,-0.332 0.871,-0.332 1.203,0 0.332,0.332 0.332,0.871 0,1.203 -0.332,0.332 -0.871,0.332 -1.203,0 z"
       style="fill:#2f58b5;fill-opacity:1;fill-rule:nonzero;stroke:none"
       transform="scale(1.3333333)" />
  </g>
</svg>
